<mxfile host="app.diagrams.net" modified="2022-08-20T09:16:47.388Z" agent="5.0 (iPad; CPU OS 15_6 like Mac OS X) AppleWebKit/605.1.15 (KHTML, like Gecko) CriOS/103.0.5060.63 Mobile/15E148 Safari/604.1" etag="g7PJPlFMec-3f1c6xibB" version="20.2.5" type="github">
  <diagram id="Fw4S7COH70FxOm-6KKhd" name="Page-1">
    <mxGraphModel dx="438" dy="296" grid="1" gridSize="10" guides="1" tooltips="1" connect="1" arrows="1" fold="1" page="1" pageScale="1" pageWidth="850" pageHeight="1100" math="0" shadow="0">
      <root>
        <mxCell id="0" />
        <mxCell id="1" parent="0" />
        <mxCell id="TU4yibmrIJwKMdJd7WsV-2" value="A" style="ellipse;whiteSpace=wrap;html=1;aspect=fixed;" vertex="1" parent="1">
          <mxGeometry x="360" y="80" width="40" height="40" as="geometry" />
        </mxCell>
        <mxCell id="TU4yibmrIJwKMdJd7WsV-3" value="R" style="ellipse;whiteSpace=wrap;html=1;aspect=fixed;" vertex="1" parent="1">
          <mxGeometry x="440" y="160" width="40" height="40" as="geometry" />
        </mxCell>
        <mxCell id="TU4yibmrIJwKMdJd7WsV-4" value="C" style="ellipse;whiteSpace=wrap;html=1;aspect=fixed;" vertex="1" parent="1">
          <mxGeometry x="480" y="80" width="40" height="40" as="geometry" />
        </mxCell>
        <mxCell id="TU4yibmrIJwKMdJd7WsV-5" value="S" style="ellipse;shape=cloud;whiteSpace=wrap;html=1;" vertex="1" parent="1">
          <mxGeometry x="550" y="70" width="60" height="60" as="geometry" />
        </mxCell>
        <mxCell id="TU4yibmrIJwKMdJd7WsV-6" value="S" style="shape=cylinder3;whiteSpace=wrap;html=1;boundedLbl=1;backgroundOutline=1;size=5.713286713286692;" vertex="1" parent="1">
          <mxGeometry x="360" y="240" width="40" height="40" as="geometry" />
        </mxCell>
        <mxCell id="TU4yibmrIJwKMdJd7WsV-12" value="" style="group" vertex="1" connectable="0" parent="1">
          <mxGeometry x="270" y="150" width="60" height="60" as="geometry" />
        </mxCell>
        <mxCell id="TU4yibmrIJwKMdJd7WsV-9" value="" style="whiteSpace=wrap;html=1;aspect=fixed;comic=0;" vertex="1" parent="TU4yibmrIJwKMdJd7WsV-12">
          <mxGeometry width="60" height="60" as="geometry" />
        </mxCell>
        <mxCell id="TU4yibmrIJwKMdJd7WsV-7" value="C/W" style="whiteSpace=wrap;html=1;aspect=fixed;" vertex="1" parent="TU4yibmrIJwKMdJd7WsV-12">
          <mxGeometry x="10" y="10" width="40" height="40" as="geometry" />
        </mxCell>
        <mxCell id="TU4yibmrIJwKMdJd7WsV-14" value="B" style="whiteSpace=wrap;html=1;aspect=fixed;comic=0;" vertex="1" parent="1">
          <mxGeometry x="160" y="160" width="40" height="40" as="geometry" />
        </mxCell>
      </root>
    </mxGraphModel>
  </diagram>
</mxfile>
